<svg width="96" height="96" viewBox="0 0 96 96" xmlns="http://www.w3.org/2000/svg"><g fill="none" fill-rule="evenodd"><path d="M83.4 23c-.6-.8-1.6-1.2-2.6-1-1 0-2 .7-2.3 1.6-.4 1-.2 2 .4 3C89 40 89.4 58.8 79.5 72.8 69.8 87 52 93 36 87.6 19.5 82.5 8.5 67.3 8.5 50.2c0-16.5 10.2-31 25.5-37 1.4-.5 2-2 1.6-3.4-.5-1.4-2-2-3.3-1.8C11 16-1 38.5 4.3 60.7 9.5 83 30.5 97.7 53 95 75.5 92 92.5 73 92.5 50c0-9.8-3.2-19.3-9-27zM41 71c-.2 1 0 2 .8 2.7.7.7 1.8 1 2.8.7 1-.3 1.7-1.2 2-2.2l8.4-35c-1.8-.2-3.7-.7-5.4-1.4l-8.5 35z" fill="#58595B"/><path d="M63 29.4c7.8-3 11.8-11.5 9-19.3-2.8-7.7-11.4-11.7-19.2-9-7.7 3-11.8 11.5-9 19.3 1.3 3.8 4 7 7.7 8.6 3.7 1.6 7.8 1.8 11.5.4zM54 6.2c1.5-.5 3 0 4 1s1.3 2.6.7 4c-.6 1.3-2 2.2-3.5 2-1.5 0-2.8-1-3.3-2.3-.7-2 .2-4 2-4.8z" fill="#F46C53"/></g></svg>
