<svg xmlns="http://www.w3.org/2000/svg" xmlns:xlink="http://www.w3.org/1999/xlink" viewBox="0 0 104 104"><defs><path d="M52.2 19.2l6.6 2-17.5 57.6c-.7 3.5-2.3 4.9-4.8 4.1-2.5-.8-3.1-2.9-1.8-6.2l17.5-57.5z" id="d"/><path d="M61 34.1c7.8-3 11.8-11.5 9-19.3a15.2 15.2 0 00-19.2-9 15.3 15.3 0 00-1.3 28c3.7 1.5 7.8 1.7 11.5.3z" id="f"/><radialGradient cx="41.1%" cy="26.9%" fx="41.1%" fy="26.9%" r="73.9%" gradientTransform="scale(1 .99655) rotate(83.1 .4 .3)" id="g"><stop stop-color="#E6EFFF" offset="0%"/><stop stop-color="#A1C5FF" offset="100%"/></radialGradient><linearGradient x1="50%" y1="30.5%" x2="50%" y2="100%" id="b"><stop stop-color="#3371B8" offset="0%"/><stop stop-color="#65ADFF" offset="100%"/></linearGradient><circle id="a" cx="45" cy="57.7" r="45"/></defs><g transform="translate(7)" fill="none" fill-rule="evenodd"><mask id="c" fill="#fff"><use xlink:href="#a"/></mask><use fill="#3371B8" xlink:href="#a"/><use fill="url(#b)" xlink:href="#a"/><path d="M36.3 77.7c1.6-1 3.6-.4 4.6 1.1l.1.2 17.5 30.5a3.5 3.5 0 01-6 3.7v-.2L35 82.5c-1-1.7-.4-3.8 1.3-4.8z" fill="#000" fill-rule="nonzero" opacity=".3" mask="url(#c)"/><mask id="e" fill="#fff"><use xlink:href="#d"/></mask><use fill="#C1D9FF" fill-rule="nonzero" xlink:href="#d"/><path d="M45.6 37.6l3.9 1-12.3 39.6c-.8 3-.3 4.7 1.6 5.2h.7l-10.7-1.8 16.8-44z" fill="#FFF" fill-rule="nonzero" mask="url(#e)"/><path d="M49.2 1.1H49c-10.2 4-15.5 15.2-12 25.4v.3c1.9 5.2 5.6 9.4 10.5 11.5a20.2 20.2 0 0027.2-25.2 20.2 20.2 0 00-25.5-12zm1.6 4.7a15.2 15.2 0 0119.2 9 15.2 15.2 0 01-20.5 19 15.3 15.3 0 011.3-27.9z" fill="#3371B8" fill-rule="nonzero"/><g fill-rule="nonzero"><use fill="#C1D9FF" xlink:href="#f"/><use fill="url(#g)" xlink:href="#f"/></g><circle fill="#FFF" cx="53.5" cy="13.2" r="5.5"/></g></svg>